HIERARCHY
ROOT pelvis
{
  OFFSET 0 100 0
  CHANNELS 6 Xposition Yposition Zposition Zrotation Xrotation Yrotation
  JOINT pelvis_right_femur
  {
    OFFSET -10.78128 -3.44521 -0.5502486
    CHANNELS 3 Zrotation Xrotation Yrotation
    JOINT right_femur_tibia
    {
      OFFSET -0.8047443 -44.0398 -0.1307829
      CHANNELS 3 Zrotation Xrotation Yrotation
      JOINT right_tibia_foot
      {
        OFFSET 3.006224 -47.83518 -5
        CHANNELS 3 Zrotation Xrotation Yrotation
        End Site
        {
          OFFSET 0 -5 15
        }
      }
    }
  }
  JOINT pelvis_left_femur
  {
    OFFSET 10.78128 -3.44521 -0.5502486
    CHANNELS 3 Zrotation Xrotation Yrotation
    JOINT left_femur_tibia
    {
      OFFSET 0.8047443 -44.0398 -0.1307829
      CHANNELS 3 Zrotation Xrotation Yrotation
      JOINT left_tibia_foot
      {
        OFFSET -4.370144 -48.10324 -4.275266
        CHANNELS 3 Zrotation Xrotation Yrotation
        End Site
        {
          OFFSET 0 -5 15
        }
      }
    }
  }
  JOINT pelvis_spine1
  {
    OFFSET 0 6.468898 -3.129235
    CHANNELS 3 Zrotation Xrotation Yrotation
    JOINT spine1
    {
      OFFSET 0 23.15396 4.99043
      CHANNELS 3 Zrotation Xrotation Yrotation
      JOINT spine2
      {
        OFFSET 0 20.79997 -5.064912
        CHANNELS 3 Zrotation Xrotation Yrotation
        JOINT neck
        {
          OFFSET 0 14.38658 9.616178
          CHANNELS 3 Zrotation Xrotation Yrotation
          End Site
          {
            OFFSET 0 20 0
          }
        }
      }
      JOINT right_manubrium
      {
        OFFSET -5.722621 16.35077 3.967754
        CHANNELS 3 Zrotation Xrotation Yrotation
        JOINT right_clavicle
        {
          OFFSET -13.16364 1.694482 -4.693211
          CHANNELS 3 Zrotation Xrotation Yrotation
          JOINT right_humerus
          {
            OFFSET -28.5034 -0.3100689 -2.792744
            CHANNELS 3 Zrotation Xrotation Yrotation
            JOINT right_radius
            {
              OFFSET -25.15693 0.02248979 -1.271978
              CHANNELS 3 Zrotation Xrotation Yrotation
              End Site
              {
                OFFSET -15 0 0
              }
            }
          }
        }
      }
      JOINT left_manubrium
      {
        OFFSET 5.722621 16.35077 3.967754
        CHANNELS 3 Zrotation Xrotation Yrotation
        JOINT left_clavicle
        {
          OFFSET 13.16364 1.694482 -4.693211
          CHANNELS 3 Zrotation Xrotation Yrotation
          JOINT left_humerus
          {
            OFFSET 29.39168 -1.063119 -2.237045
            CHANNELS 3 Zrotation Xrotation Yrotation
            JOINT left_radius
            {
              OFFSET 24.59957 -0.9528479 0.9047498
              CHANNELS 3 Zrotation Xrotation Yrotation
              End Site
              {
                OFFSET 15 -0 -0
              }
            }
          }
        }
      }
    }
  }
}
MOTION
Frames: 21
Frame Time: 0.0416666666667
-1077.33 114.1235 728.4915 -1.01563 8.228812 176.6754 3.573975 -12.54567 2.277392 -0 32.73118 -0 -11.99427 -10.08823 3.204707 -5.635636 14.50148 -21.41527 -0 5.348269 -0 27.47125 0.8467171 27.54889 -2.301964 1.716673 6.554219 -1.848541 9.967101 -3.205237 -0.2123808 22.64685 7.902301 7.764061 -17.19773 4.282758 2.027387 -21.58568 10.15646 84.06774 41.00114 -6.657382 -0 0 18.97449 -19.24852 4.793217 6.523564 6.507792 -21.44978 -6.253935 -89.40368 7.391257 22.02552 0 0 -8.503177 17.24092 7.996464 -9.936449
-1077.785 113.9775 725.9122 -1.063384 7.043433 176.3508 3.582897 -13.41187 3.402229 -0 33.68903 -0 -10.56397 -11.77145 2.595527 -5.983525 14.05851 -21.77337 -0 5.143649 -0 26.99957 -0.09920389 27.93547 -2.399571 1.884111 6.426017 -1.850429 9.773725 -3.211431 -0.1904501 22.68624 7.940754 7.786672 -17.27435 4.354771 2.015286 -21.36084 10.06689 84.10661 41.71157 -6.606195 -0 0 18.6656 -19.03136 4.619535 6.397351 6.592838 -21.31881 -6.185952 -88.91008 7.292371 21.28233 0 0 -9.294959 17.52517 7.779515 -10.37095
-1078.21 113.8519 723.4639 -1.069261 5.993915 176.059 3.663112 -14.32303 4.360545 -0 34.41179 -0 -9.476853 -13.00424 2.018995 -6.267949 13.61633 -21.9735 -0 5.139296 -0 26.41406 -1.151092 28.24706 -2.49732 2.052025 6.326432 -1.860618 9.56565 -3.190501 -0.1677373 22.72423 7.985621 7.806957 -17.35123 4.440868 2.005598 -21.17755 9.973837 84.07671 42.47817 -6.435294 -0 0 18.42846 -18.80882 4.450584 6.292149 6.656746 -21.15411 -6.088952 -88.47598 7.193744 20.65982 0 0 -9.954373 17.79326 7.554253 -10.76553
-1078.604 113.7414 721.0984 -1.042543 5.081607 175.7979 3.802408 -15.30696 5.109205 -0 34.78702 -0 -8.704171 -13.76675 1.51242 -6.492712 13.21075 -22.02053 -0 5.293183 -0 25.79129 -2.260529 28.45901 -2.593662 2.217209 6.249986 -1.87614 9.349061 -3.147422 -0.1433737 22.76226 8.034379 7.823204 -17.42792 4.539559 1.999037 -21.02868 9.880167 83.98794 43.27529 -6.16653 -0 0 18.24798 -18.58601 4.291916 6.208771 6.701317 -20.96201 -5.968485 -88.0992 7.102043 20.14541 0 0 -10.48902 18.0441 7.331312 -11.12024
-1078.969 113.6359 718.7688 -0.9921228 4.292923 175.5653 3.988677 -16.37212 5.643469 -0 34.7782 -0 -8.192493 -14.09718 1.095031 -6.66452 12.85815 -21.93025 -0 5.56772 -0 25.18757 -3.381166 28.56227 -2.686928 2.376111 6.191694 -1.894458 9.130205 -3.087178 -0.1167767 22.80141 8.084722 7.834165 -17.50335 4.648783 1.996236 -20.90753 9.788689 83.85044 44.07659 -5.822371 -0 0 18.11047 -18.36858 4.148745 6.147602 6.728888 -20.7499 -5.830378 -87.77752 7.022961 19.72631 0 0 -10.90795 18.27677 7.120876 -11.43533
-1079.305 113.5244 716.4332 -0.924385 3.607798 175.3591 4.211748 -17.51281 5.983984 -0 34.40656 -0 -7.884585 -14.0641 0.771232 -6.790465 12.56136 -21.72354 -0 5.935264 -0 24.63624 -4.474838 28.55968 -2.775489 2.525374 6.147709 -1.913672 8.914913 -3.014313 -0.08782852 22.84221 8.134805 7.839253 -17.57628 4.766002 1.997589 -20.80884 9.701838 83.67402 44.85812 -5.423945 -0 0 18.00521 -18.16195 4.024925 6.108281 6.741858 -20.52539 -5.680237 -87.50917 6.960619 19.39188 0 0 -11.21979 18.49016 6.931102 -11.71093
-1079.614 113.3968 714.0558 -0.8430912 3.00602 175.1773 4.46376 -18.71464 6.162203 -0 33.72359 -0 -7.731092 -13.74311 0.5360416 -6.876732 12.31547 -21.42123 -0 6.379502 -0 24.15187 -5.51323 28.45991 -2.857871 2.662181 6.115523 -1.932575 8.708293 -2.93269 -0.05689659 22.88469 8.183351 7.838543 -17.64548 4.888373 2.003168 -20.72908 9.621514 83.46781 45.60001 -4.989898 -0 0 17.92483 -17.97081 3.922538 6.08966 6.742401 -20.29567 -5.523118 -87.29299 6.917411 19.13447 0 0 -11.43176 18.683 6.767468 -11.94685
-1079.897 113.2454 711.6067 -0.7501116 2.470637 175.0186 4.738756 -19.95856 6.210031 -0 32.78898 -0 -7.694352 -13.20318 0.3800659 -6.928217 12.11196 -21.04101 -0 6.894401 -0 23.73647 -6.476486 28.27245 -2.93283 2.784377 6.093845 -1.950597 8.514578 -2.8454 -0.02473482 22.92843 8.229611 7.832663 -17.70991 5.012961 2.012727 -20.66629 9.549053 83.24005 46.28694 -4.535931 -0 0 17.86508 -17.79903 3.841979 6.089999 6.732366 -20.06714 -5.363362 -87.12833 6.894211 18.94942 0 0 -11.54941 18.85389 6.632911 -12.14272
-1080.153 113.065 709.0609 -0.6462156 1.989125 174.8814 5.032064 -21.22303 6.154632 -0 31.6584 -0 -7.74782 -12.5015 0.2927984 -6.948595 11.94103 -20.59644 -0 7.48235 -0 23.38499 -7.350607 28.00494 -2.999361 2.89044 6.082321 -1.967686 8.337121 -2.754787 0.007665248 22.97281 8.27327 7.822606 -17.76871 5.136916 2.025768 -20.61978 9.485292 82.99802 46.90777 -4.074771 -0 0 17.82417 -17.64973 3.782365 6.107258 6.713264 -19.84522 -5.204564 -87.015 6.890761 18.83444 0 0 -11.57675 19.00134 6.528416 -12.298
-1080.384 112.8531 706.3972 -0.5316515 1.553358 174.7642 5.339738 -22.4849 6.016874 -0 30.37887 -0 -7.873911 -11.6835 0.2642807 -6.94054 11.79258 -20.09701 -0 8.152417 -0 23.08912 -8.124874 27.66222 -3.056684 2.979354 6.081229 -1.98417 8.178467 -2.662514 0.03921984 23.01711 8.314311 7.809555 -17.8211 5.257605 2.041635 -20.58973 9.430684 82.74792 47.45471 -3.616392 -0 0 17.80204 -17.5255 3.742022 6.139399 6.686321 -19.63433 -5.049612 -86.95313 6.906094 18.789 0 0 -11.51635 19.12393 6.45373 -12.4121
-1080.588 112.61 703.5976 -0.4065158 1.159148 174.6653 5.658109 -23.71927 5.811639 -0 28.98871 -0 -8.061712 -10.78504 0.2856479 -6.905956 11.65634 -19.54892 -0 8.919068 -0 22.83969 -8.789837 27.24645 -3.104199 3.050471 6.091228 -2.000633 8.04048 -2.569676 0.06886626 23.06068 8.352897 7.794742 -17.86635 5.372672 2.059607 -20.57681 9.385412 82.49484 47.92242 -3.168338 -0 0 17.79981 -17.42858 3.718934 6.184602 6.65252 -19.438 -4.900777 -86.94318 6.938876 18.81372 0 0 -11.36961 19.22024 6.407995 -12.48436
-1080.766 112.3383 700.6464 -0.2709967 0.80579 174.5821 5.983432 -24.8989 5.548819 -0 27.51915 -0 -8.305118 -9.83513 0.3490605 -6.846183 11.52164 -18.95583 -0 9.801287 -0 22.62788 -9.335945 26.75773 -3.141443 3.103362 6.113173 -2.017806 7.92448 -2.476897 0.09563761 23.10293 8.389265 7.779337 -17.90366 5.480056 2.078969 -20.58202 9.349496 82.24281 48.30716 -2.736072 -0 0 17.81936 -17.36098 3.711106 6.241421 6.612651 -19.25894 -4.759819 -86.98591 6.98765 18.90996 0 0 -11.13693 19.28894 6.390214 -12.51404
-1080.916 112.0433 697.5299 -0.1255611 0.4957486 174.5116 6.311588 -25.99327 5.234394 -0 25.99665 -0 -8.601438 -8.858422 0.4473518 -6.762155 11.37704 -18.31968 -0 10.82189 -0 22.44592 -9.752789 26.19488 -3.168041 3.137699 6.147999 -2.036492 7.83138 -2.384442 0.1187046 23.14341 8.423652 7.764382 -17.93214 5.577974 2.099064 -20.6065 9.322885 81.99483 48.60613 -2.323317 -0 0 17.86306 -17.32458 3.716807 6.308848 6.567347 -19.09924 -4.628096 -87.08233 7.050976 19.07954 0 0 -10.81794 19.32866 6.399555 -12.50028
-1081.038 111.7327 694.2366 0.02887166 0.2345329 174.4496 6.637853 -26.96776 4.871409 -0 24.44489 -0 -8.950377 -7.877174 0.5735682 -6.654534 11.20975 -17.64132 -0 12.00676 -0 22.2874 -10.02887 25.55642 -3.183658 3.153152 6.196656 -2.057501 7.761802 -2.292304 0.137394 23.18173 8.456223 7.750742 -17.95072 5.664881 2.119323 -20.6515 9.305514 81.75295 48.81694 -1.932362 -0 0 17.93367 -17.32121 3.734752 6.386342 6.517107 -18.96046 -4.506662 -87.23371 7.127488 19.3246 0 0 -10.41172 19.33803 6.435511 -12.44208
-1081.131 111.4169 690.7569 0.1907571 0.03069535 174.3906 6.956741 -27.78294 4.460812 -0 22.88646 -0 -9.353271 -6.912712 0.7204917 -6.523803 11.00526 -16.92125 -0 13.3836 -0 22.14742 -10.15188 24.8416 -3.18797 3.149318 6.260075 -2.081608 7.716177 -2.200295 0.1511935 23.21755 8.487035 7.739079 -17.95822 5.739428 2.139282 -20.71834 9.297359 81.51835 48.93727 -1.564321 -0 0 18.03427 -17.3526 3.764204 6.473814 6.462319 -18.84384 -4.396349 -87.44151 7.215891 19.64744 0 0 -9.917064 19.31563 6.497953 -12.3382
-1081.194 111.1088 687.0841 0.3577682 -0.1041287 174.328 7.261977 -28.3944 4.00226 -0 21.34406 -0 -9.812425 -5.986317 0.880204 -6.370319 10.74696 -16.16016 -0 14.97989 -0 22.02272 -10.10959 24.05162 -3.180634 3.12567 6.33915 -2.109515 7.694815 -2.108116 0.1597494 23.25048 8.515992 7.729832 -17.95328 5.800434 2.158584 -20.80845 9.298462 81.29146 48.96468 -1.219358 -0 0 18.1683 -17.42034 3.805045 6.571587 6.403273 -18.75031 -4.29784 -87.70733 7.314894 20.05045 0 0 -9.332829 19.25997 6.587089 -12.18724
-1081.225 110.8238 683.215 0.5266934 -0.1552693 174.2533 7.546686 -28.75349 3.494971 -0 19.84107 -0 -10.33048 -5.119548 1.043752 -6.194313 10.41608 -15.3597 -0 16.81936 -0 21.91175 -9.891323 23.19116 -3.16128 3.081535 6.434737 -2.141817 7.697941 -2.015435 0.1628624 23.28002 8.54282 7.723196 -17.93442 5.846852 2.176973 -20.92339 9.308947 81.072 48.89658 -0.8968516 -0 0 18.33961 -17.52577 3.857809 6.680342 6.340174 -18.68067 -4.211713 -88.0327 7.423114 20.536 0 0 -8.658339 19.1695 6.703357 -11.98761
-1081.223 110.5791 679.1511 0.6934638 -0.1053303 174.1567 7.803848 -28.80928 2.938698 -0 18.40145 -0 -10.90973 -4.333946 1.200998 -5.995799 9.992107 -14.52309 -0 18.91673 -0 21.81463 -9.490123 22.26987 -3.129508 3.016101 6.547632 -2.178977 7.725706 -1.921945 0.1604841 23.30546 8.567047 7.719112 -17.90012 5.87777 2.19428 -21.06487 9.329016 80.85916 48.73036 -0.5955336 -0 0 18.55245 -17.66984 3.923689 6.801035 6.273156 -18.63553 -4.138478 -88.41892 7.538933 21.10622 0 0 -7.893929 19.04271 6.847239 -11.73765
-1081.189 110.3929 674.8999 0.8534084 0.0650298 174.027 8.027065 -28.5123 2.334848 -0 17.04897 -0 -11.55135 -3.650105 1.340753 -5.774384 9.453882 -13.65594 -0 21.27012 -0 21.73299 -8.905548 21.30401 -3.084916 2.928464 6.678551 -2.221281 7.778157 -1.827443 0.1527131 23.32583 8.587993 7.717256 -17.84891 5.892421 2.210408 -21.23479 9.358927 80.65164 48.46375 -0.3135947 -0 0 18.81153 -17.85285 4.004498 6.934791 6.202292 -18.6154 -4.078586 -88.8667 7.660338 21.76272 0 0 -7.041607 18.87825 7.019002 -11.43585
-1081.12 110.2825 670.476 1.001845 0.3756195 173.8526 8.21157 -27.82015 1.687627 -0 15.80575 -0 -12.25451 -3.086195 1.451297 -5.528964 8.78176 -12.76684 -0 23.85148 -0 21.66955 -8.146692 20.31768 -3.027143 2.81772 6.828074 -2.268803 7.855164 -1.731898 0.1397911 23.33976 8.604775 7.717034 -17.77949 5.890219 2.22531 -21.43517 9.398955 80.44782 48.09531 -0.04878693 -0 0 19.12188 -18.07415 4.102578 7.082757 6.127616 -18.62066 -4.03243 -89.37575 7.784731 22.50619 0 0 -6.10584 18.67511 7.218367 -11.0811
-1081.017 110.2626 665.9019 1.135076 0.8443755 173.622 8.355279 -26.70476 1.005 -0 14.69037 -0 -13.01551 -2.656187 1.521331 -5.257355 7.961008 -11.86787 -0 26.59597 -0 21.62735 -7.234811 19.3433 -2.955942 2.683116 6.996565 -2.321351 7.956318 -1.635531 0.1220948 23.3455 8.616331 7.7176 -17.69091 5.870815 2.238965 -21.66803 9.449328 80.2459 47.62519 0.2014497 -0 0 19.48864 -18.33187 4.22063 7.245902 6.049141 -18.65146 -4.000317 -89.94421 7.908769 23.33582 0 0 -5.09443 18.43293 7.444115 -10.67311
